<svg width="50" height="50" viewBox="0 0 50 50" fill="none" xmlns="http://www.w3.org/2000/svg">
<path fill-rule="evenodd" clip-rule="evenodd" d="M25 50C38.8071 50 50 38.8071 50 25C50 11.1929 38.8071 0 25 0C11.1929 0 0 11.1929 0 25C0 38.8071 11.1929 50 25 50ZM19.1446 21.5665C19.1446 21.5665 20.107 18.8585 25.4579 18.9349C30.8088 19.0113 31.4253 21.7419 31.4253 21.7419C31.4253 21.7419 31.7737 22.7945 29.9316 24.7244C28.8665 25.8401 27.523 26.4304 27.0902 26.6011C27.0041 26.6351 26.9436 26.7124 26.9444 26.8049C26.948 27.2615 27.0917 28.6707 28.6158 29.8562C30.7625 31.4145 33.7915 30.5749 35.1899 28.3207C35.9222 27.1404 36.5106 25.5938 36.5106 23.6717C36.5106 18.584 34.1671 15.8981 32.3878 14.5489C30.1898 12.8823 27.1246 12.6191 25.1071 12.6191C23.0895 12.6191 20.0243 12.8823 17.8263 14.5489C16.047 15.8981 13.7036 18.584 13.7036 23.6717C13.7035 27.6542 16.2296 30.0242 17.3271 30.866C17.6434 31.1086 18.038 31.2126 18.4315 31.1495C19.1893 31.028 20.5381 30.6854 21.7737 29.7244C23.2826 28.5507 23.5589 27.1287 23.6095 26.6473C23.6201 26.5465 23.557 26.4565 23.4628 26.419C23.0129 26.2399 21.6899 25.6505 20.6384 24.5489C18.7963 22.6191 19.1446 21.5665 19.1446 21.5665ZM20.0141 34.2714L24.8062 31.3961C25.0031 31.278 25.2283 31.2156 25.4579 31.2156C25.6875 31.2156 25.9127 31.278 26.1095 31.3961L30.9017 34.2714C31.0025 34.3319 31.0501 34.4508 31.0054 34.5595C30.737 35.2118 29.5443 37.356 25.4579 37.356C21.3715 37.356 20.1787 35.2118 19.9104 34.5595C19.8657 34.4508 19.9133 34.3319 20.0141 34.2714Z" fill="#F1F1F2"/>
</svg>
